


[img]http://i.imgur.com/kgg93.jpg[/img]

[img]http://i.imgur.com/1Tbiw.jpg[/img]

[img]http://i.imgur.com/5hWt8.jpg[/img]

[img]http://i.imgur.com/QPNDu.jpg[/img]

A.D. 2034. It has been two years since Motoko Kusanagi left Section 9. Togusa is now the new 

leader of the team, that has considerably increased its appointed personnel. The expanded new 

Section 9 confronts a rash of complicated incidents, and investigations reveal that an ultra-

wizard hacker nicknamed the \\\"Puppet Master\\\" is behind the entire series of events
 
http://i.minus.com/i9GBc6dWn7UCX.jpg 
http://www.imdb.com/title/tt0856797/


Complete name                    : Ghost in the Shell S.A.C  Solid State Society [ENG]  1280x720 

salman sk.m4v
Format                           : MPEG-4
Format profile                   : Base Media / Version 2
Codec ID                         : mp42
File size                        : 450 MiB
Duration                         : 1h 48mn
Overall bit rate                 : 579 Kbps
Encoded date                     : UTC 2011-09-20 11:56:23
Tagged date                      : UTC 2011-09-20 13:18:36
language			 : English

video
ID                               : 1
Format                           : AVC
Format/Info                      : Advanced Video Codec
Format profile                   : Main@L3.1
Format settings, CABAC           : Yes
Format settings, ReFrames        : 4 frames
Format settings, GOP             : M=3, N=16
Codec ID                         : avc1
Codec ID/Info                    : Advanced Video Coding
Duration                         : 1h 48mn
Bit rate mode                    : Variable
Bit rate                         : 415 Kbps
Width                            : 1 280 pixels
Height                           : 720 pixels
Display aspect ratio             : 16:9
Frame rate mode                  : Constant
Frame rate                       : 29.970 fps
Color space                      : YUV
Chroma subsampling               : 4:2:0
Bit depth                        : 8 bits
Scan type                        : Progressive
Bits/(Pixel*Frame)               : 0.015
Stream size                      : 322 MiB (72%)
Writing library                  : x264 core 112

audio
ID                               : 2
Format                           : AAC
Format/Info                      : Advanced Audio Codec
Format version                   : Version 4
Format profile                   : LC
Format settings, SBR             : No
Codec ID                         : 40
Duration                         : 1h 48mn
Bit rate mode                    : Variable
Bit rate                         : 160 Kbps
Maximum bit rate                 : 285 Kbps
Channel(s)                       : 2 channels
Channel positions                : Front: L R
Sampling rate                    : 48.0 KHz
Stream size                      : 124 MiB (28%)
Language                         : English
Encoded date                     : UTC 2011-09-20 11:56:23
Tagged date                      : UTC 2011-09-20 13:18:36